<?xml version="1.0" encoding="utf-8"?>
<!-- Generator: Adobe Illustrator 16.0.0, SVG Export Plug-In . SVG Version: 6.00 Build 0)  -->
<!DOCTYPE svg PUBLIC "-//W3C//DTD SVG 1.1//EN" "http://www.w3.org/Graphics/SVG/1.1/DTD/svg11.dtd">
<svg version="1.1" id="圖層_1" xmlns="http://www.w3.org/2000/svg" xmlns:xlink="http://www.w3.org/1999/xlink" x="0px" y="0px"
	 width="30px" height="30px" viewBox="0 0 30 30" enable-background="new 0 0 30 30" xml:space="preserve">
<path fill="#898989" d="M25,0H5C2.239,0,0,2.239,0,5v20c0,2.762,2.239,5,5,5h10V16.872h-3.75v-3.75H15v-2.809
	c0-2.588,2.099-4.687,4.688-4.687l0,0h4.688v3.746h-4.688c-0.518,0-0.938,0.42-0.938,0.938v2.813h5.156l-0.938,3.75H18.75V30H25
	c2.762,0,5-2.238,5-5V5C30,2.239,27.762,0,25,0z"/>
</svg>
