<?xml version="1.0" encoding="utf-8"?>
<!-- Generator: Adobe Illustrator 16.0.0, SVG Export Plug-In . SVG Version: 6.00 Build 0)  -->
<!DOCTYPE svg PUBLIC "-//W3C//DTD SVG 1.1//EN" "http://www.w3.org/Graphics/SVG/1.1/DTD/svg11.dtd">
<svg version="1.1" xmlns="http://www.w3.org/2000/svg" xmlns:xlink="http://www.w3.org/1999/xlink" x="0px" y="0px"
	 width="850.39px" height="850.39px" viewBox="0 0 850.39 850.39" enable-background="new 0 0 850.39 850.39" xml:space="preserve">
<g id="圖層_1">
	<g>
		<g>
			<linearGradient id="SVGID_1_" gradientUnits="userSpaceOnUse" x1="308.7144" y1="333.6079" x2="308.7144" y2="571.338">
				<stop  offset="0" style="stop-color:#898989"/>
				<stop  offset="1" style="stop-color:#333333"/>
			</linearGradient>
			<path fill="url(#SVGID_1_)" d="M303.783,438.615c0,13.148-2.85,21.184-23.011,23.376c-0.44-4.871-1.536-9.011-3.945-11.444
				c-2.85-2.68-7.451-4.627-16.438-5.846v-3.652c0,0,18.63,1.463,22.575,1.463c3.726,0,4.602-1.219,4.602-4.384V351.93h-79.774
				l-1.534-7.061h93.58l10.521-14.854c0,0,11.834,10.228,19.285,18.02c-0.658,2.679-2.85,3.896-5.917,3.896h-19.943V438.615z
				 M209.545,262.811l-1.754-7.061h85.471l10.521-14.61c0,0,12.054,9.983,19.505,17.775c-0.658,2.677-2.629,3.896-5.917,3.896
				h-14.247v70.127c0,0.974-5.259,4.628-13.588,4.628h-2.63v-74.755H209.545z M271.347,419.38
				c-0.218,1.704-7.451,5.841-12.492,5.841h-2.41v-7.304h-23.669v9.011c0,1.217-6.575,5.112-12.492,5.112h-2.412v-69.153l16,7.55
				h20.381l8.327-9.254l17.534,14.61c-1.316,1.704-4.821,3.652-8.767,4.627V419.38z M257.979,331.719v-7.792h-22.573v7.551
				c0,1.217-6.575,5.112-12.493,5.112h-2.191v-63.31l15.78,7.792h19.286l8.109-9.253l17.532,14.611
				c-1.314,1.704-4.602,3.408-8.547,4.383v35.306c-0.218,1.704-7.451,5.6-12.493,5.6H257.979z M256.445,410.856v-33.115h-23.669
				v33.115H256.445z M257.979,316.623v-28.488h-22.573v28.488H257.979z M361.421,321.494c3.507,58.438,13.808,98.371,49.75,121.99
				l-0.22,2.68c-8.327,1.703-13.148,6.816-15.122,17.531c-23.887-21.672-33.092-60.874-36.817-108.843
				c-4.383,43.585-15.78,84.735-55.449,109.328l-2.848-3.651c40.325-33.116,43.831-93.259,44.708-152.428l24.327,6.088
				c-0.658,3.165-2.85,5.356-8.109,5.112L361.421,321.494z M314.741,329.529c8.109-23.619,16.218-59.17,20.381-90.581l25.423,7.304
				c-0.878,2.923-3.288,5.115-7.891,5.358c-3.726,12.661-7.889,25.324-12.71,37.012h43.612l9.863-10.715l17.094,18.507
				c-1.534,1.948-4.164,2.191-8.327,2.677c-5.262,12.419-14.684,31.411-22.793,42.855l-2.85-1.704
				c2.85-11.932,6.575-31.168,8.547-44.56h-47.996c-5.479,13.392-12.052,25.812-18.848,35.795L314.741,329.529z"/>
			<linearGradient id="SVGID_2_" gradientUnits="userSpaceOnUse" x1="542.6621" y1="333.6079" x2="542.6621" y2="571.3378">
				<stop  offset="0" style="stop-color:#898989"/>
				<stop  offset="1" style="stop-color:#333333"/>
			</linearGradient>
			<path fill="url(#SVGID_2_)" d="M505.623,413.777v43.83c0,1.217-5.479,5.356-14.023,5.356h-2.631v-49.187h-46.021l-1.756-7.304
				h47.777v-27.272H466.83v5.845c0,1.46-5.037,4.87-12.93,4.87h-2.408v-67.693l17.75,8.279h19.727V306.64h-4.824v5.114
				c0,1.704-6.793,5.356-12.709,5.356h-3.068v-39.203H443.16l-1.752-7.061h26.959v-31.898l23.447,2.435
				c-0.436,3.652-2.41,5.845-7.67,6.817v22.646h27.178v-31.898l23.451,2.435c-0.441,3.652-2.414,5.845-7.455,6.817v22.646h5.699
				l10.082-14.854c0,0,11.176,10.471,17.969,18.019c-0.656,2.68-2.627,3.896-5.699,3.896h-28.051v32.143
				c0,1.704-7.012,5.112-13.146,5.112h-2.85v-8.522h-5.699v23.862h22.793l7.668-9.739l16.658,13.636
				c-1.313,1.948-3.508,3.167-7.668,4.14v42.855c0,0.973-5.922,4.627-13.373,4.627h-2.627v-6.819h-23.451v27.272h21.041
				l10.518-14.853c0,0,12.053,10.712,19.287,18.261c-0.441,2.679-2.629,3.896-5.695,3.896H505.623z M488.969,372.141v-34.819H466.83
				v34.819H488.969z M511.322,299.578v-21.671h-27.178v21.671H511.322z M505.623,337.321v34.819h23.451v-34.819H505.623z
				 M644.133,307.858c-1.535,1.947-3.947,3.164-8.988,3.651c-1.531,87.172-5.695,127.592-15.996,140.254
				c-5.918,7.549-14.686,10.713-24.328,10.713c0-6.088-0.658-10.957-3.504-13.879c-2.854-2.922-10.082-5.602-17.533-7.305v-3.896
				c7.67,0.731,20.162,1.948,24.545,1.948c3.943,0,5.695-0.729,7.891-3.165c7.451-7.791,10.736-49.917,12.271-127.105h-28.711
				c-1.973,64.771-11.176,117.365-62.676,154.377l-3.072-3.896c39.234-38.229,47.121-88.634,48.654-150.481h-22.57l-1.975-7.061
				h24.545c0.439-18.992,0.219-38.959,0.219-60.143l25.424,2.921c-0.658,3.408-2.414,5.844-7.668,6.818
				c-0.223,17.532-0.223,34.332-0.658,50.403h26.297l9.643-11.688L644.133,307.858z"/>
		</g>
		<g>
			<linearGradient id="SVGID_3_" gradientUnits="userSpaceOnUse" x1="270.2402" y1="333.6094" x2="270.2402" y2="571.3383">
				<stop  offset="0" style="stop-color:#898989"/>
				<stop  offset="1" style="stop-color:#333333"/>
			</linearGradient>
			<path fill="url(#SVGID_3_)" d="M309.058,572.383c-0.214,10.594-3.603,19.441-10.166,26.539
				c-3.674,3.959-8.036,7.037-13.083,9.229c-5.047,2.195-10.281,3.291-15.703,3.291c-4.708,0-9.346-0.891-13.911-2.676
				c-4.566-1.783-8.614-4.279-12.146-7.49c-4.53-4.137-7.883-9.113-10.059-14.928c-1.712-4.637-2.568-9.238-2.568-13.804
				c0-8.489,2.622-16.194,7.865-23.114c3.603-4.815,8.133-8.588,13.59-11.315c5.458-2.73,11.183-4.094,17.175-4.094
				c10.523,0,19.583,3.62,27.181,10.861c3.389,3.246,5.083,5.546,5.083,6.901c0,0.465-0.187,0.857-0.561,1.178
				c-0.375,0.321-0.828,0.481-1.363,0.481c-0.818,0-1.69-0.624-2.618-1.872c-7.16-9.524-16.347-14.286-27.567-14.286
				c-1.354,0-2.725,0.089-4.114,0.268l-0.321,37.988l0.273,32.263c1.352,0.25,2.703,0.375,4.059,0.375
				c4.025,0,7.924-0.678,11.7-2.033c9.545-3.389,16.402-9.613,20.569-18.673c1.782-3.817,2.832-7.704,3.153-11.664h-27.929
				c-2.461-0.071-3.941-0.196-4.441-0.374c-0.5-0.18-0.749-0.643-0.749-1.392c0-1.142,0.856-1.712,2.568-1.712l3.21,0.053H309.058z"
				/>
			<linearGradient id="SVGID_4_" gradientUnits="userSpaceOnUse" x1="373.1348" y1="333.6074" x2="373.1348" y2="571.3384">
				<stop  offset="0" style="stop-color:#898989"/>
				<stop  offset="1" style="stop-color:#333333"/>
			</linearGradient>
			<path fill="url(#SVGID_4_)" d="M372.653,536.214l-0.214,11.183l-0.214,17.816l0.054,13.002l0.214,27.555l3.846,0.055
				l22.865-0.375l4.167-0.053c2.1,0,3.151,0.631,3.151,1.898c0,1.121-0.571,1.734-1.71,1.844c-0.25,0.037-1.07,0.074-2.459,0.109
				h-62.605l0.161-20.332l0.107-12.467l0.107-14.125l-0.214-21.509l0.054-4.602H372.653z"/>
			<linearGradient id="SVGID_5_" gradientUnits="userSpaceOnUse" x1="474.5859" y1="333.6084" x2="474.5859" y2="571.3374">
				<stop  offset="0" style="stop-color:#898989"/>
				<stop  offset="1" style="stop-color:#333333"/>
			</linearGradient>
			<path fill="url(#SVGID_5_)" d="M475.656,531.826l42.775,77.422h-37.104l-5.17-9.791h-17.914l-15.781-0.055l-2.672-0.053
				l-3.52,6.537c-1.029,1.967-1.75,3.188-2.168,3.664c-0.412,0.477-0.922,0.713-1.533,0.713c-1.221,0-1.83-0.533-1.83-1.604
				c0-0.465,0.348-1.328,1.041-2.594c0.693-1.268,3.131-5.434,7.309-12.496l32.389-54.521L475.656,531.826z M459.01,566.977
				l-9.35,15.727l-7.475,12.955l15.957,0.213l16.012-0.213L459.01,566.977z"/>
			<linearGradient id="SVGID_6_" gradientUnits="userSpaceOnUse" x1="581.9502" y1="333.6074" x2="581.9502" y2="571.3384">
				<stop  offset="0" style="stop-color:#898989"/>
				<stop  offset="1" style="stop-color:#333333"/>
			</linearGradient>
			<path fill="url(#SVGID_6_)" d="M545.164,536.214h28.145c7.348,0,12.877,0.356,16.586,1.07c9.168,1.747,16.57,6.634,22.207,14.66
				c4.422,6.313,6.635,13.269,6.635,20.866c0,7.741-2.283,14.785-6.85,21.135c-5.492,7.67-12.666,12.432-21.514,14.285
				c-2.281,0.465-4.311,0.75-6.094,0.857c-1.785,0.107-5.709,0.16-11.771,0.16h-27.182l0.16-35.313L545.164,536.214z
				 M577.91,539.639l-0.322,43.018l0.322,23.168c4.779-0.037,8.211-0.223,10.301-0.563c2.084-0.338,4.486-1.096,7.197-2.273
				c6.381-2.746,11.395-7.17,15.031-13.27c3.176-5.244,4.76-10.915,4.76-17.015c0-6.634-1.869-12.733-5.607-18.298
				c-6.662-9.881-16.527-14.821-29.602-14.821L577.91,539.639z"/>
		</g>
	</g>
</g>
<g id="圖層_2" display="none">
	<g display="inline">
		<rect x="333.626" y="78.333" fill="none" width="183.138" height="65"/>
		<path fill="#898989" d="M395.36,129.874c0,3.24-0.702,5.22-5.67,5.76c-0.108-1.2-0.378-2.22-0.972-2.82
			c-0.702-0.66-1.836-1.14-4.05-1.44v-0.9c0,0,4.59,0.36,5.563,0.36c0.918,0,1.134-0.3,1.134-1.08v-21.239h-19.656l-0.378-1.74
			h23.058l2.592-3.66c0,0,2.916,2.52,4.752,4.44c-0.162,0.66-0.702,0.96-1.458,0.96h-4.914V129.874z M372.14,86.556l-0.432-1.74
			h21.06l2.592-3.6c0,0,2.97,2.46,4.806,4.38c-0.162,0.66-0.648,0.96-1.458,0.96h-3.51v17.279c0,0.24-1.296,1.14-3.348,1.14h-0.648
			V86.556H372.14z M387.368,125.134c-0.054,0.42-1.836,1.439-3.078,1.439h-0.594v-1.8h-5.832v2.22c0,0.3-1.62,1.26-3.078,1.26
			h-0.594v-17.04l3.942,1.86h5.022l2.052-2.28l4.32,3.6c-0.324,0.42-1.188,0.9-2.16,1.14V125.134z M384.074,103.535v-1.92h-5.562
			v1.86c0,0.3-1.62,1.26-3.078,1.26h-0.54v-15.6l3.888,1.92h4.752l1.998-2.28l4.32,3.6c-0.324,0.42-1.134,0.84-2.106,1.08v8.699
			c-0.054,0.42-1.836,1.38-3.078,1.38H384.074z M383.696,123.034v-8.16h-5.832v8.16H383.696z M384.074,99.815v-7.02h-5.562v7.02
			H384.074z M409.563,101.015c0.864,14.399,3.402,24.239,12.258,30.059l-0.054,0.66c-2.052,0.42-3.24,1.68-3.726,4.32
			c-5.886-5.34-8.154-15-9.072-26.819c-1.08,10.739-3.888,20.879-13.663,26.938l-0.702-0.9c9.936-8.16,10.8-22.979,11.016-37.558
			l5.994,1.5c-0.162,0.78-0.702,1.32-1.998,1.26L409.563,101.015z M398.061,102.995c1.998-5.82,3.996-14.58,5.022-22.319l6.264,1.8
			c-0.216,0.72-0.81,1.26-1.944,1.32c-0.918,3.12-1.944,6.24-3.132,9.12h10.746l2.43-2.64l4.212,4.56
			c-0.378,0.48-1.026,0.54-2.052,0.66c-1.296,3.06-3.618,7.74-5.616,10.56l-0.702-0.42c0.702-2.94,1.62-7.68,2.106-10.979h-11.826
			c-1.35,3.3-2.97,6.36-4.644,8.82L398.061,102.995z"/>
		<path fill="#898989" d="M445.094,123.754v10.8c0,0.3-1.35,1.32-3.455,1.32h-0.648v-12.12h-11.34l-0.433-1.8h11.772v-6.72h-5.455
			v1.44c0,0.36-1.241,1.2-3.186,1.2h-0.594v-16.68l4.374,2.04h4.86v-5.88h-1.188v1.26c0,0.42-1.674,1.32-3.132,1.32h-0.756v-9.66
			h-6.211l-0.432-1.74h6.643v-7.86l5.777,0.6c-0.107,0.9-0.594,1.44-1.89,1.68v5.58h6.696v-7.86l5.778,0.6
			c-0.108,0.9-0.595,1.44-1.837,1.68v5.58h1.404l2.484-3.66c0,0,2.754,2.58,4.428,4.44c-0.162,0.66-0.647,0.96-1.404,0.96h-6.912
			v7.92c0,0.42-1.728,1.26-3.239,1.26h-0.702v-2.1h-1.404v5.88h5.616l1.89-2.4l4.104,3.36c-0.323,0.48-0.864,0.78-1.89,1.02v10.56
			c0,0.24-1.459,1.14-3.295,1.14h-0.647v-1.68h-5.778v6.72h5.185l2.592-3.66c0,0,2.97,2.64,4.752,4.5
			c-0.108,0.66-0.647,0.96-1.403,0.96H445.094z M440.99,113.495v-8.58h-5.455v8.58H440.99z M446.498,95.615v-5.34h-6.696v5.34
			H446.498z M445.094,104.915v8.58h5.778v-8.58H445.094z M479.223,97.655c-0.378,0.48-0.973,0.78-2.215,0.9
			c-0.377,21.479-1.403,31.438-3.941,34.559c-1.458,1.86-3.618,2.64-5.994,2.64c0-1.5-0.162-2.7-0.863-3.42
			c-0.703-0.72-2.484-1.38-4.32-1.8v-0.96c1.89,0.18,4.968,0.48,6.048,0.48c0.972,0,1.403-0.18,1.944-0.78
			c1.836-1.92,2.646-12.3,3.023-31.319h-7.074c-0.486,15.959-2.754,28.919-15.443,38.039l-0.757-0.96
			c9.667-9.42,11.61-21.839,11.988-37.079h-5.562l-0.486-1.74h6.048c0.108-4.68,0.054-9.6,0.054-14.819l6.265,0.72
			c-0.162,0.84-0.595,1.44-1.89,1.68c-0.055,4.32-0.055,8.459-0.162,12.419h6.479l2.376-2.88L479.223,97.655z"/>
	</g>
	<g display="inline">
		<rect x="371.126" y="141.75" fill="none" width="108.138" height="32.5"/>
		<path fill="#898989" d="M396.66,162.834c-0.053,2.61-0.888,4.79-2.505,6.539c-0.905,0.976-1.98,1.734-3.224,2.274
			c-1.244,0.541-2.533,0.811-3.869,0.811c-1.16,0-2.303-0.22-3.428-0.659s-2.123-1.055-2.993-1.846
			c-1.116-1.02-1.942-2.246-2.479-3.678c-0.422-1.143-0.633-2.276-0.633-3.401c0-2.092,0.646-3.99,1.938-5.695
			c0.888-1.187,2.004-2.116,3.349-2.788c1.345-0.673,2.755-1.009,4.232-1.009c2.593,0,4.825,0.892,6.697,2.676
			c0.835,0.8,1.252,1.367,1.252,1.701c0,0.114-0.046,0.211-0.138,0.29s-0.204,0.119-0.336,0.119c-0.202,0-0.417-0.154-0.645-0.461
			c-1.764-2.347-4.028-3.52-6.792-3.52c-0.333,0-0.671,0.022-1.014,0.066l-0.079,9.36l0.067,7.95c0.333,0.062,0.666,0.092,1,0.092
			c0.992,0,1.953-0.167,2.883-0.501c2.352-0.835,4.042-2.369,5.068-4.601c0.439-0.94,0.698-1.898,0.777-2.874h-6.882
			c-0.606-0.018-0.971-0.048-1.094-0.092s-0.185-0.158-0.185-0.343c0-0.281,0.211-0.422,0.633-0.422l0.791,0.013H396.66z"/>
		<path fill="#898989" d="M412.33,153.922l-0.053,2.755l-0.053,4.39l0.013,3.204l0.053,6.79l0.948,0.013l5.634-0.092l1.027-0.013
			c0.518,0,0.776,0.156,0.776,0.468c0,0.276-0.141,0.428-0.421,0.455c-0.062,0.009-0.264,0.018-0.606,0.027h-15.426l0.04-5.01
			l0.026-3.072l0.026-3.48l-0.053-5.3l0.013-1.134H412.33z"/>
		<path fill="#898989" d="M437.71,152.841l10.54,19.077h-9.143l-1.273-2.413h-4.414l-3.889-0.013l-0.658-0.013l-0.867,1.611
			c-0.254,0.484-0.432,0.785-0.534,0.903c-0.102,0.117-0.228,0.176-0.378,0.176c-0.301,0-0.451-0.132-0.451-0.396
			c0-0.114,0.086-0.327,0.257-0.639s0.771-1.338,1.801-3.079l7.98-13.434L437.71,152.841z M433.608,161.502l-2.304,3.875
			l-1.842,3.192l3.932,0.053l3.945-0.053L433.608,161.502z"/>
		<path fill="#898989" d="M454.837,153.922h6.935c1.811,0,3.173,0.088,4.087,0.264c2.259,0.431,4.083,1.635,5.472,3.612
			c1.09,1.556,1.635,3.27,1.635,5.142c0,1.907-0.563,3.643-1.688,5.208c-1.354,1.89-3.121,3.063-5.301,3.52
			c-0.563,0.114-1.063,0.185-1.502,0.211s-1.406,0.04-2.9,0.04h-6.697l0.039-8.701L454.837,153.922z M462.905,154.766l-0.079,10.6
			l0.079,5.708c1.178-0.009,2.023-0.055,2.538-0.139c0.514-0.083,1.105-0.27,1.773-0.56c1.572-0.677,2.808-1.767,3.704-3.27
			c0.782-1.292,1.173-2.689,1.173-4.192c0-1.635-0.461-3.138-1.382-4.509c-1.642-2.435-4.072-3.652-7.294-3.652L462.905,154.766z"/>
	</g>
</g>
</svg>
